<svg width="40" height="40" xmlns="http://www.w3.org/2000/svg">
  <g transform="translate(5,5) scale(0.75)">
    <!-- Leaf shape -->
    <path d="M20,5 
             C30,5 40,15 40,25 
             C40,35 30,45 20,35 
             C10,45 0,35 0,25 
             C0,15 10,5 20,5 Z"
          fill="#4D7C6F" fill-opacity="0.7" stroke="#4D7C6F" stroke-width="1.5" stroke-linecap="round"/>
    
    <!-- Leaf vein -->
    <path d="M20,5 C20,15 20,25 20,35" 
          fill="none" stroke="#4D7C6F" stroke-width="1" stroke-linecap="round" stroke-opacity="0.7"/>
    
    <!-- Side veins -->
    <path d="M20,15 C15,17 10,16 7,14" 
          fill="none" stroke="#4D7C6F" stroke-width="0.75" stroke-linecap="round" stroke-opacity="0.6"/>
    <path d="M20,15 C25,17 30,16 33,14" 
          fill="none" stroke="#4D7C6F" stroke-width="0.75" stroke-linecap="round" stroke-opacity="0.6"/>
    <path d="M20,25 C15,27 10,26 5,22" 
          fill="none" stroke="#4D7C6F" stroke-width="0.75" stroke-linecap="round" stroke-opacity="0.6"/>
    <path d="M20,25 C25,27 30,26 35,22" 
          fill="none" stroke="#4D7C6F" stroke-width="0.75" stroke-linecap="round" stroke-opacity="0.6"/>
  </g>
</svg> 